<?xml version="1.0" standalone="no"?><!DOCTYPE svg PUBLIC "-//W3C//DTD SVG 1.1//EN" "http://www.w3.org/Graphics/SVG/1.1/DTD/svg11.dtd"><svg class="icon" width="128px" height="128.00px" viewBox="0 0 1024 1024" version="1.1" xmlns="http://www.w3.org/2000/svg"><path d="M408.63776 1014.72C320.76576 991.808 163.96576 947.2 135.80576 736.32 117.11776 595.584 132.02976 498.112 180.79776 443.712l36.544 70.336c20.672-91.904 60.992-161.28 120.96-208.128C428.28576 235.648 433.91776 66.944 394.55776 33.152c-39.36-33.728 300.928 78.72 320.64 374.08 26.24-67.52 61.824-101.248 106.88-101.248-18.816 50.56-10.368 107.776 25.28 171.52 53.44 95.616 132.16 404.992-196.864 525.952 70.272-101.248 35.2-261.568-138.496-393.728-49.92 134.976-86.528 129.344-117.44 194.048-30.912 64.64-47.808 149.056 14.08 210.944z" fill="#F5232D" /></svg>