<?xml version="1.0" standalone="no"?><!DOCTYPE svg PUBLIC "-//W3C//DTD SVG 1.1//EN" "http://www.w3.org/Graphics/SVG/1.1/DTD/svg11.dtd"><svg class="icon" width="128px" height="119.70px" viewBox="0 0 1095 1024" version="1.1" xmlns="http://www.w3.org/2000/svg"><path d="M542.404803 0c-11.467205 0-22.92893 8.809969-31.629323 26.435386l-113.411913 229.798834c-17.395306 35.245354-63.450404 68.710087-102.344664 74.358768L41.425482 367.438162c-38.89426 5.654159-47.693271 32.72509-19.548488 60.157624l183.502667 178.87305c28.144783 27.438013 45.737326 81.579874 39.091498 120.315248l-43.32116 252.568878c-4.815897 28.079036 5.955495 44.592249 25.498505 44.59225 7.418344 0 16.107779-2.383294 25.679306-7.412866l226.823826-119.246874c17.395306-9.144178 40.324236-13.719006 63.253167-13.719006s45.857861 4.574828 63.253166 13.719006l226.823826 119.246874c9.571527 5.035051 18.255483 7.412866 25.679306 7.412866 19.537531 0 30.314402-16.518692 25.498505-44.59225l-43.321159-252.574357c-6.645829-38.740852 10.946715-92.882713 39.091497-120.315247l183.502667-178.873051c28.144783-27.432534 19.35125-54.503464-19.548488-60.157623l-253.593421-36.850654c-38.89426-5.654159-84.954837-39.113413-102.344664-74.358767l-113.411913-229.793356C565.333733 8.809969 553.872007 0 542.404803 0z" fill="#F9CE00" /></svg>